<svg xmlns="http://www.w3.org/2000/svg" viewBox="0 0 373 385.15"><defs><style>.cls-1,.cls-4{fill:#fff;}.cls-2,.cls-3{fill:#8d8fca;}.cls-3{stroke:#8d8fca;}.cls-3,.cls-4{stroke-miterlimit:10;stroke-width:14px;}.cls-4{stroke:#fff;}</style></defs><g id="Layer_2" data-name="Layer 2"><g id="Layer_1-2" data-name="Layer 1"><circle class="cls-1" cx="186.5" cy="198.65" r="168.5"/><path class="cls-2" d="M186.5,48.15A150.5,150.5,0,1,1,80.08,92.23,149.55,149.55,0,0,1,186.5,48.15m0-36C83.5,12.15,0,95.65,0,198.65s83.5,186.5,186.5,186.5S373,301.66,373,198.65,289.5,12.15,186.5,12.15Z"/><path class="cls-3" d="M122.75,138.7c34.68-15.1,202.58-79.49,137.52,121.51a34.17,34.17,0,0,1-6.67,11.33l-15.21,17.7c-7.46,8.67-17.12,12.71-21.4,8.94l-11.94-97c-1.23-10-7.69-15.61-17.77-15.49l-97,1.13c-4.21-3.7-1.61-13.57,5.83-22l15.31-17.41A34,34,0,0,1,122.75,138.7Z"/><path class="cls-3" d="M352.71,28c5-13.61-9.67-26.08-22.27-18.88C263.25,47.5,132.28,135.63,226.12,194.41,272.88,223.7,328,94.77,352.71,28Z"/><circle class="cls-4" cx="278.47" cy="95.94" r="15.5"/><rect class="cls-2" x="44.43" y="236.11" width="212" height="28.47" transform="translate(-138.33 206.55) rotate(-50.37)"/><rect class="cls-2" x="7.43" y="206.11" width="212" height="28.47" transform="translate(-128.63 167.18) rotate(-50.37)"/><rect class="cls-2" x="87.43" y="260.11" width="212" height="28.47" transform="translate(-141.24 248.36) rotate(-50.37)"/></g></g></svg>